<?xml version="1.0" encoding="UTF-8" standalone="no"?>
<svg
   width="16"
   height="16"
   viewBox="0 0 16 16"
   fill="currentColor"
   version="1.1"
   id="svg20"
   sodipodi:docname="open-preview.svg"
   inkscape:version="1.2.2 (732a01da63, 2022-12-09, custom)"
   xmlns:inkscape="http://www.inkscape.org/namespaces/inkscape"
   xmlns:sodipodi="http://sodipodi.sourceforge.net/DTD/sodipodi-0.dtd"
   xmlns="http://www.w3.org/2000/svg"
   xmlns:svg="http://www.w3.org/2000/svg">
  <defs
     id="defs24" />
  <sodipodi:namedview
     id="namedview22"
     pagecolor="#ffffff"
     bordercolor="#000000"
     borderopacity="0.25"
     inkscape:showpageshadow="2"
     inkscape:pageopacity="0.0"
     inkscape:pagecheckerboard="0"
     inkscape:deskcolor="#d1d1d1"
     showgrid="false"
     inkscape:zoom="64.1875"
     inkscape:cx="7.9922103"
     inkscape:cy="8"
     inkscape:window-width="5120"
     inkscape:window-height="1376"
     inkscape:window-x="0"
     inkscape:window-y="27"
     inkscape:window-maximized="1"
     inkscape:current-layer="svg20" />
  <path
     fill-rule="evenodd"
     clip-rule="evenodd"
     d="M3 1h11l1 1v5.3a3.21 3.21 0 0 0-1-.3V2H9v10.88L7.88 14H3l-1-1V2l1-1zm0 12h5V2H3v11zm10.379-4.998a2.53 2.53 0 0 0-1.19.348h-.03a2.51 2.51 0 0 0-.799 3.53L9 14.23l.71.71 2.35-2.36c.325.22.7.358 1.09.4a2.47 2.47 0 0 0 1.14-.13 2.51 2.51 0 0 0 1-.63 2.46 2.46 0 0 0 .58-1 2.63 2.63 0 0 0 .07-1.15 2.53 2.53 0 0 0-1.35-1.81 2.53 2.53 0 0 0-1.211-.258zm.24 3.992a1.5 1.5 0 0 1-.979-.244 1.55 1.55 0 0 1-.56-.68 1.49 1.49 0 0 1-.08-.86 1.49 1.49 0 0 1 1.18-1.18 1.49 1.49 0 0 1 .86.08c.276.117.512.311.68.56a1.5 1.5 0 0 1-1.1 2.324z"
     id="path18"
     style="fill:#c0c0c0" />
</svg>
