<?xml version="1.0" encoding="UTF-8" standalone="no"?>
<svg
   version="1.2"
   width="5.02mm"
   height="5.02mm"
   viewBox="0 0 502 502"
   preserveAspectRatio="xMidYMid"
   fill-rule="evenodd"
   stroke-width="28.222"
   stroke-linejoin="round"
   xml:space="preserve"
   id="svg3611"
   sodipodi:docname="pin-dirty.svg"
   inkscape:version="1.2.2 (732a01da63, 2022-12-09, custom)"
   xmlns:inkscape="http://www.inkscape.org/namespaces/inkscape"
   xmlns:sodipodi="http://sodipodi.sourceforge.net/DTD/sodipodi-0.dtd"
   xmlns="http://www.w3.org/2000/svg"
   xmlns:svg="http://www.w3.org/2000/svg"
   xmlns:ooo="http://xml.openoffice.org/svg/export"><sodipodi:namedview
   id="namedview3613"
   pagecolor="#ffffff"
   bordercolor="#000000"
   borderopacity="0.25"
   inkscape:showpageshadow="2"
   inkscape:pageopacity="0.0"
   inkscape:pagecheckerboard="0"
   inkscape:deskcolor="#d1d1d1"
   inkscape:document-units="mm"
   showgrid="false"
   inkscape:zoom="54.128901"
   inkscape:cx="9.4773769"
   inkscape:cy="9.4866141"
   inkscape:window-width="5120"
   inkscape:window-height="1376"
   inkscape:window-x="0"
   inkscape:window-y="27"
   inkscape:window-maximized="1"
   inkscape:current-layer="svg3611" />
 <defs
   class="ClipPathGroup"
   id="defs3546">
  <clipPath
   id="presentation_clip_path"
   clipPathUnits="userSpaceOnUse">
   <rect
   x="0"
   y="0"
   width="502"
   height="502"
   id="rect3540" />
  </clipPath>
  <clipPath
   id="presentation_clip_path_shrink"
   clipPathUnits="userSpaceOnUse">
   <rect
   x="0"
   y="0"
   width="501"
   height="501"
   id="rect3543" />
  </clipPath>
 </defs>
 <defs
   class="TextShapeIndex"
   id="defs3550">
  <g
   ooo:slide="id1"
   ooo:id-list="id3 id4"
   id="g3548" />
 </defs>
 <defs
   class="EmbeddedBulletChars"
   id="defs3582">
  <g
   id="bullet-char-template-57356"
   transform="scale(0.00048828125,-0.00048828125)">
   <path
   d="M 580,1141 L 1163,571 580,0 -4,571 580,1141 Z"
   id="path3552" />
  </g>
  <g
   id="bullet-char-template-57354"
   transform="scale(0.00048828125,-0.00048828125)">
   <path
   d="M 8,1128 L 1137,1128 1137,0 8,0 8,1128 Z"
   id="path3555" />
  </g>
  <g
   id="bullet-char-template-10146"
   transform="scale(0.00048828125,-0.00048828125)">
   <path
   d="M 174,0 L 602,739 174,1481 1456,739 174,0 Z M 1358,739 L 309,1346 659,739 1358,739 Z"
   id="path3558" />
  </g>
  <g
   id="bullet-char-template-10132"
   transform="scale(0.00048828125,-0.00048828125)">
   <path
   d="M 2015,739 L 1276,0 717,0 1260,543 174,543 174,936 1260,936 717,1481 1274,1481 2015,739 Z"
   id="path3561" />
  </g>
  <g
   id="bullet-char-template-10007"
   transform="scale(0.00048828125,-0.00048828125)">
   <path
   d="M 0,-2 C -7,14 -16,27 -25,37 L 356,567 C 262,823 215,952 215,954 215,979 228,992 255,992 264,992 276,990 289,987 310,991 331,999 354,1012 L 381,999 492,748 772,1049 836,1024 860,1049 C 881,1039 901,1025 922,1006 886,937 835,863 770,784 769,783 710,716 594,584 L 774,223 C 774,196 753,168 711,139 L 727,119 C 717,90 699,76 672,76 641,76 570,178 457,381 L 164,-76 C 142,-110 111,-127 72,-127 30,-127 9,-110 8,-76 1,-67 -2,-52 -2,-32 -2,-23 -1,-13 0,-2 Z"
   id="path3564" />
  </g>
  <g
   id="bullet-char-template-10004"
   transform="scale(0.00048828125,-0.00048828125)">
   <path
   d="M 285,-33 C 182,-33 111,30 74,156 52,228 41,333 41,471 41,549 55,616 82,672 116,743 169,778 240,778 293,778 328,747 346,684 L 369,508 C 377,444 397,411 428,410 L 1163,1116 C 1174,1127 1196,1133 1229,1133 1271,1133 1292,1118 1292,1087 L 1292,965 C 1292,929 1282,901 1262,881 L 442,47 C 390,-6 338,-33 285,-33 Z"
   id="path3567" />
  </g>
  <g
   id="bullet-char-template-9679"
   transform="scale(0.00048828125,-0.00048828125)">
   <path
   d="M 813,0 C 632,0 489,54 383,161 276,268 223,411 223,592 223,773 276,916 383,1023 489,1130 632,1184 813,1184 992,1184 1136,1130 1245,1023 1353,916 1407,772 1407,592 1407,412 1353,268 1245,161 1136,54 992,0 813,0 Z"
   id="path3570" />
  </g>
  <g
   id="bullet-char-template-8226"
   transform="scale(0.00048828125,-0.00048828125)">
   <path
   d="M 346,457 C 273,457 209,483 155,535 101,586 74,649 74,723 74,796 101,859 155,911 209,963 273,989 346,989 419,989 480,963 531,910 582,859 608,796 608,723 608,648 583,586 532,535 482,483 420,457 346,457 Z"
   id="path3573" />
  </g>
  <g
   id="bullet-char-template-8211"
   transform="scale(0.00048828125,-0.00048828125)">
   <path
   d="M -4,459 L 1135,459 1135,606 -4,606 -4,459 Z"
   id="path3576" />
  </g>
  <g
   id="bullet-char-template-61548"
   transform="scale(0.00048828125,-0.00048828125)">
   <path
   d="M 173,740 C 173,903 231,1043 346,1159 462,1274 601,1332 765,1332 928,1332 1067,1274 1183,1159 1299,1043 1357,903 1357,740 1357,577 1299,437 1183,322 1067,206 928,148 765,148 601,148 462,206 346,322 231,437 173,577 173,740 Z"
   id="path3579" />
  </g>
 </defs>
 <g
   id="g3587">
  <g
   id="id2"
   class="Master_Slide">
   <g
   id="bg-id2"
   class="Background" />
   <g
   id="bo-id2"
   class="BackgroundObjects" />
  </g>
 </g>
 <g
   class="SlideGroup"
   id="g3609">
  <g
   id="g3607">
   <g
   id="container-id1">
    <g
   id="id1"
   class="Slide"
   clip-path="url(#presentation_clip_path)">
     <g
   class="Page"
   id="g3603">
      <g
   class="Graphic"
   id="g3594">
       <g
   id="id3">
        <rect
   class="BoundingBox"
   stroke="none"
   fill="none"
   x="0"
   y="0"
   width="502"
   height="502"
   id="rect3589" />
        <path
   fill="rgb(0,0,0)"
   stroke="none"
   d="M 145,92 L 328,92 328,99 C 328,110 325,120 321,129 316,138 310,146 301,152 L 301,228 C 309,231 317,236 323,242 L 323,242 C 329,247 333,250 337,256 L 337,256 C 330,258 322,262 315,266 314,266 314,266 314,267 L 314,267 313,267 313,267 C 308,261 302,256 295,252 291,250 288,250 284,249 L 275,246 275,137 283,133 C 285,131 287,129 289,127 L 289,127 C 291,125 293,123 295,121 L 295,121 C 296,120 296,119 297,119 298,117 298,115 299,113 L 174,113 C 175,116 176,119 178,121 L 178,121 C 181,126 185,130 190,132 L 198,137 198,246 189,249 C 178,251 169,257 161,266 154,274 147,290 145,301 L 275,301 275,301 C 272,306 269,310 266,315 265,317 263,319 262,322 L 250,322 250,407 237,433 224,407 224,322 118,322 118,309 C 118,300 120,291 122,283 125,275 128,267 133,260 L 133,260 C 141,249 151,239 164,231 166,230 169,229 171,228 L 171,152 171,152 C 164,147 158,140 154,132 153,131 152,130 152,129 L 152,129 C 147,120 145,110 145,99 L 145,92 145,92 145,92 145,92 Z M 341,312 L 341,312 341,312 C 347,308 353,306 360,304 366,302 373,301 381,301 388,301 395,302 402,304 L 402,304 C 408,306 414,309 420,312 426,315 432,320 436,325 L 436,325 C 441,330 446,335 449,341 453,347 455,353 457,360 459,366 460,373 460,381 460,388 459,395 457,402 L 457,402 C 455,408 453,414 449,420 446,426 441,432 436,437 L 436,437 C 432,442 426,446 420,449 414,453 408,455 402,457 395,459 388,460 381,460 373,460 366,459 360,457 L 360,457 C 353,455 347,453 341,449 335,446 329,442 325,437 L 325,437 C 320,432 315,426 312,420 309,414 306,408 304,402 L 304,402 C 302,395 301,388 301,381 L 301,381 C 301,373 302,366 304,360 L 304,360 C 306,353 308,347 312,341 316,334 321,327 327,322 331,318 336,315 341,312 L 341,312 341,312 341,312 Z"
   id="path3591"
   style="fill:#c0c0c0" />
       </g>
      </g>
      <g
   class="com.sun.star.drawing.LineShape"
   id="g3601">
       <g
   id="id4">
        <rect
   class="BoundingBox"
   stroke="none"
   fill="none"
   x="79"
   y="105"
   width="316"
   height="316"
   id="rect3596" />
        <path
   fill="none"
   stroke="#000000"
   stroke-width="35"
   stroke-linejoin="round"
   stroke-linecap="round"
   d="M 97,402 376,123"
   id="path3598"
   style="display:inline;fill:#c0c0c0;stroke:#c0c0c0" />
       </g>
      </g>
     </g>
    </g>
   </g>
  </g>
 </g>
</svg>
