<?xml version="1.0" encoding="UTF-8" standalone="no"?>
<svg
   width="16"
   height="16"
   viewBox="0 0 16 16"
   fill="currentColor"
   version="1.1"
   id="svg27"
   sodipodi:docname="fork.svg"
   inkscape:version="1.2.2 (732a01da63, 2022-12-09, custom)"
   xmlns:inkscape="http://www.inkscape.org/namespaces/inkscape"
   xmlns:sodipodi="http://sodipodi.sourceforge.net/DTD/sodipodi-0.dtd"
   xmlns="http://www.w3.org/2000/svg"
   xmlns:svg="http://www.w3.org/2000/svg">
  <defs
     id="defs31">
    <inkscape:path-effect
       effect="spiro"
       id="path-effect6430"
       is_visible="true"
       lpeversion="1" />
  </defs>
  <sodipodi:namedview
     id="namedview29"
     pagecolor="#ffffff"
     bordercolor="#000000"
     borderopacity="0.25"
     inkscape:showpageshadow="2"
     inkscape:pageopacity="0.0"
     inkscape:pagecheckerboard="0"
     inkscape:deskcolor="#d1d1d1"
     showgrid="false"
     inkscape:zoom="35.024177"
     inkscape:cx="1.2277234"
     inkscape:cy="8.8510289"
     inkscape:window-width="1815"
     inkscape:window-height="985"
     inkscape:window-x="1369"
     inkscape:window-y="162"
     inkscape:window-maximized="0"
     inkscape:current-layer="svg27" />
  <path
     d="m -2.7022825,7.8039654 a 2.51,2.51 0 0 0 -3.159,-0.31 2.5,2.5 0 0 0 -0.921,1.12 2.23,2.23 0 0 0 -0.13,0.44 4.52,4.52 0 0 1 -3.9999995,-4 2.23,2.23 0 0 0 0.44,-0.13 2.5,2.5 0 0 0 1.5399995,-2.31 2.45,2.45 0 0 0 -0.19,-1 2.48,2.48 0 0 0 -1.3499995,-1.35000003 2.45,2.45 0 0 0 -1,-0.19 2.5,2.5 0 0 0 -2.31,1.54000003 2.52,2.52 0 0 0 0.54,2.73 c 0.35,0.343 0.79,0.579 1.27,0.68 v 5.0999996 a 2.411,2.411 0 0 0 -0.89,0.37 2.5,2.5 0 1 0 3.4699995,3.468 2.5,2.5 0 0 0 0.42,-1.387 2.45,2.45 0 0 0 -0.19,-1 2.48,2.48 0 0 0 -1.8099995,-1.49 V 7.6849654 a 5.52,5.52 0 0 0 1.9999995,1.73 5.65,5.65 0 0 0 2.09,0.5999996 2.5,2.5 0 0 0 4.95,-0.4899996 2.51,2.51 0 0 0 -0.77,-1.72 z m -8.1999995,3.3799996 c 0.276,0.117 0.512,0.312 0.68,0.56 a 1.5,1.5 0 0 1 -2.08,2.08 1.55,1.55 0 0 1 -0.56,-0.68 1.49,1.49 0 0 1 -0.08,-0.86 1.49,1.49 0 0 1 1.18,-1.18 1.49,1.49 0 0 1 0.86,0.08 z m -0.57,-7.1099996 a 1.5,1.5 0 0 1 -1.39,-0.93 1.49,1.49 0 0 1 -0.08,-0.86 1.49,1.49 0 0 1 1.18,-1.18 1.49,1.49 0 0 1 0.86,0.08 1.5,1.5 0 0 1 -0.57,2.89 z m 8.0599995,6.5599996 a 1.5,1.5 0 0 1 -2.45,-0.49 1.49,1.49 0 0 1 -0.08,-0.8599996 1.49,1.49 0 0 1 1.18,-1.18 1.49,1.49 0 0 1 0.86,0.08 1.499,1.499 0 0 1 0.49,2.4499996 z"
     id="path25" />
  <ellipse
     style="fill:none;stroke:#000000;stroke-width:1.00005;stroke-dasharray:none;stroke-opacity:1"
     id="path245"
     cx="4.6240001"
     cy="12.823759"
     rx="1.923975"
     ry="1.9237338" />
  <ellipse
     style="fill:none;stroke:#000000;stroke-width:1.00005;stroke-dasharray:none;stroke-opacity:1"
     id="ellipse1821"
     cx="4.6240001"
     cy="2.9237587"
     rx="1.923975"
     ry="1.9237338" />
  <ellipse
     style="fill:none;stroke:#000000;stroke-width:1.00005;stroke-dasharray:none;stroke-opacity:1"
     id="ellipse1823"
     cx="11.924"
     cy="4.1237588"
     rx="1.923975"
     ry="1.9237338" />
  <path
     style="opacity:1;fill:#000000;fill-opacity:1;stroke:#000000;stroke-width:1;stroke-dasharray:none;stroke-opacity:1"
     d="M 4.6748,4.67786 4.6652,10.78273"
     id="path4854"
     sodipodi:nodetypes="cc" />
  <path
     style="opacity:1;fill:none;fill-opacity:1;stroke:#000000;stroke-width:1;stroke-dasharray:none;stroke-opacity:1"
     d="M 4.6522063,10.620129 C 5.3730792,10.08027 6.2154515,9.7036181 7.0984449,9.526337 7.9961155,9.346109 8.9316259,9.3691203 9.8111775,9.1147906 10.482603,8.9206423 11.125012,8.5483796 11.517783,7.9702475 11.904736,7.4006798 12.015633,6.6522958 11.81048,5.994989"
     id="path6428"
     inkscape:original-d="M 4.6522063,10.620129 C 5.1493503,10.327629 10.968961,9.312172 7.0984449,9.526337 3.9975507,9.6979169 8.6492834,9.5034825 9.8111775,9.1147906 10.916308,8.7450879 10.895253,8.4370235 11.517783,7.9702475 12.140313,7.5034725 12.119979,6.7799666 11.81048,5.994989"
     inkscape:path-effect="#path-effect6430"
     sodipodi:nodetypes="csssc" />
</svg>
